<svg width="377" height="369" viewBox="0 0 377 369" fill="none" xmlns="http://www.w3.org/2000/svg">
<path d="M67.3125 122C68.8594 121.897 70.4062 121.794 72 121.688C74.0831 121.791 76.1662 121.894 78.3125 122C81.5094 122.536 84.7062 123.072 88 123.625C89.7351 123.996 91.4702 124.368 93.2578 124.75C94.9259 125.162 96.5939 125.575 98.3125 126C100.973 126.866 103.634 127.733 106.375 128.625C108.994 129.739 111.614 130.852 114.312 132C115.848 132.733 117.383 133.467 118.965 134.223C120.565 135.036 122.164 135.849 123.812 136.688C126.2 137.979 126.2 137.979 128.637 139.297C130.18 140.189 131.723 141.081 133.312 142C136.056 143.794 138.799 145.589 141.625 147.438C144.162 149.273 146.699 151.109 149.312 153C151.829 154.939 154.345 156.878 156.938 158.875C159.041 160.566 161.145 162.258 163.312 164C165.066 165.461 166.82 166.923 168.615 168.419C169.057 168.787 169.312 169.325 169.312 169.9C169.312 170.578 168.958 171.214 168.377 171.565C166.811 172.512 165.238 173.463 163.625 174.438C160.5 176.201 160.5 176.201 157.312 178C154.22 179.855 150.371 179.914 147.224 178.152C146.653 177.833 146.079 177.511 145.5 177.188C142.798 175.476 140.096 173.764 137.312 172C134.714 170.639 132.115 169.278 129.438 167.875C126.756 166.596 124.075 165.317 121.312 164C118.425 162.742 115.537 161.484 112.562 160.188C109.84 159.136 107.118 158.084 104.312 157C102.147 156.381 99.9813 155.762 97.75 155.125C95.9556 154.754 94.1612 154.382 92.3125 154C89.6725 153.67 87.0325 153.34 84.3125 153C82.6419 152.897 80.9713 152.794 79.25 152.688C77.5494 152.777 75.8487 152.867 74.1093 152.958C73.5788 152.986 73.051 153.052 72.5301 153.156C70.3152 153.599 68.0938 154.044 65.8125 154.5C63.7251 155.196 61.6377 155.892 59.5053 156.602C58.7127 156.867 57.9527 157.22 57.2402 157.657C55.8308 158.519 54.4162 159.385 52.9757 160.267C52.4512 160.589 51.9545 160.953 51.4909 161.357C50.5152 162.208 49.5369 163.061 48.5452 163.925C47.7279 164.638 47.0204 165.467 46.4457 166.387C45.3509 168.139 44.2521 169.897 43.135 171.684C42.5894 172.557 42.169 173.502 41.8862 174.492C41.4696 175.95 41.0514 177.414 40.6264 178.901C40.4177 179.632 40.2851 180.383 40.231 181.141C40.1212 182.678 40.0942 183.057 39.9375 185.25C40.0393 186.811 40.1412 188.373 40.2451 189.966C40.2899 190.654 40.3993 191.336 40.5717 192.003C40.8758 193.18 41.1811 194.361 41.4912 195.561C41.6634 196.227 41.8981 196.877 42.1914 197.499C42.8894 198.98 43.1139 199.457 43.7949 200.902C44.1388 201.631 44.5622 202.322 45.057 202.959C46.0123 204.189 46.9714 205.424 47.9483 206.682C48.274 207.102 48.6297 207.497 49.0125 207.865C50.2313 209.037 51.4534 210.212 52.7 211.411C53.1077 211.803 53.5451 212.163 54.0082 212.488C55.1556 213.293 56.3065 214.1 57.4793 214.922C57.9092 215.224 58.3602 215.494 58.8287 215.731C60.3069 216.479 61.7904 217.23 63.3125 218C66.3134 219.145 66.3134 219.145 69.375 220.312C71.048 220.788 72.721 221.263 74.4309 221.749C75.0176 221.916 75.6172 222.034 76.2234 222.101C78.8906 222.398 81.5653 222.695 84.3125 223C87.3753 223.093 87.3753 223.093 90.5 223.188C93.8722 223.095 93.8722 223.095 97.3125 223C99.4987 222.773 101.685 222.546 103.938 222.312C106.371 221.879 108.805 221.446 111.312 221C115.551 220.134 115.551 220.134 119.875 219.25C122.267 218.598 122.267 218.598 124.707 217.934C126.557 217.296 128.407 216.657 130.312 216C132.668 214.98 135.023 213.961 137.449 212.91C139.962 211.723 142.474 210.536 145.062 209.312C147.55 208.071 150.038 206.83 152.602 205.551C154.816 204.379 157.031 203.207 159.312 202C161.994 200.35 164.675 198.7 167.438 197C169.706 195.35 171.975 193.7 174.312 192C176.53 190.399 176.53 190.399 178.793 188.766C180.388 187.605 181.982 186.445 183.625 185.25C185.231 184.059 186.837 182.868 188.492 181.641C190.083 180.439 191.674 179.238 193.312 178C194.8 176.84 196.288 175.68 197.82 174.484C200.013 172.76 200.013 172.76 202.25 171C203.727 169.846 205.205 168.693 206.727 167.504C208.24 166.348 209.753 165.191 211.312 164C213.706 162.25 213.706 162.25 216.148 160.465C217.791 159.301 219.433 158.137 221.125 156.938C222.788 155.789 224.451 154.64 226.164 153.457C227.863 152.316 229.562 151.175 231.312 150C233.954 148.273 233.954 148.273 236.648 146.512C239.297 144.835 239.297 144.835 242 143.125C243.736 142.067 245.473 141.008 247.262 139.918C248.928 138.955 250.595 137.992 252.312 137C253.845 136.192 255.378 135.384 256.957 134.551C258.394 133.853 259.832 133.156 261.312 132.438C263.953 131.303 266.592 130.169 269.312 129C271.499 128.237 273.685 127.474 275.938 126.688C279.093 125.852 279.093 125.852 282.312 125C284.767 124.423 287.221 123.845 289.75 123.25C292.246 122.838 294.741 122.425 297.312 122C299.54 121.856 301.767 121.711 304.062 121.562C306.455 121.707 308.848 121.851 311.312 122C314.489 122.557 317.665 123.114 320.938 123.688C325.578 124.832 325.578 124.832 330.312 126C332.457 126.763 334.602 127.526 336.812 128.312C339.535 129.643 339.535 129.643 342.312 131C344.21 132.114 346.107 133.227 348.062 134.375C349.795 135.571 351.528 136.768 353.312 138C354.715 139.093 356.117 140.186 357.562 141.312C359.419 143.138 359.419 143.138 361.312 145C362.529 146.567 363.746 148.135 365 149.75C366.093 151.482 367.186 153.215 368.312 155C369.22 156.794 370.127 158.589 371.062 160.438C371.805 162.273 372.548 164.109 373.312 166C373.845 167.655 374.377 169.31 374.926 171.016C375.318 172.71 375.711 174.404 376.112 176.136C376.246 176.711 376.332 177.296 376.372 177.885C376.495 179.732 376.619 181.586 376.746 183.488C376.747 185.74 376.749 187.992 376.75 190.312C376.719 192.683 376.688 195.054 376.656 197.496C376.556 199.387 376.456 201.278 376.354 203.213C376.326 203.737 376.261 204.258 376.159 204.773C375.758 206.794 375.356 208.819 374.946 210.886C374.816 211.544 374.625 212.19 374.376 212.814C373.527 214.948 373.401 215.264 372.312 218C371.219 220.248 370.126 222.496 369 224.812C367.783 226.854 366.566 228.896 365.312 231C364.24 232.526 363.168 234.053 362.062 235.625C360.825 237.069 359.587 238.513 358.312 240C355.683 242.784 355.683 242.784 353 245.625C351.123 247.399 349.246 249.173 347.312 251C345.827 252.196 344.342 253.393 342.812 254.625C340.997 255.739 339.183 256.852 337.312 258C334.404 259.506 331.496 261.011 328.5 262.562C326.027 263.701 326.027 263.701 323.504 264.863C320.934 265.921 320.934 265.921 318.312 267C316.61 267.571 314.907 268.142 313.152 268.73C311.431 269.232 309.711 269.733 307.938 270.25C306.196 270.721 304.454 271.191 302.66 271.676C300.895 272.113 299.131 272.55 297.312 273C295.496 273.406 293.68 273.812 291.809 274.23C290.016 274.629 288.222 275.027 286.375 275.438C284.649 275.842 282.923 276.247 281.145 276.664C279.55 277.105 277.955 277.546 276.312 278C273.755 279.093 271.197 280.186 268.562 281.312C266.5 282.529 264.438 283.746 262.312 285C260.933 286.017 259.554 287.035 258.145 288.074C257.591 288.482 257.077 288.941 256.609 289.446C255.818 290.298 255.025 291.154 254.22 292.021C253.617 292.671 253.094 293.394 252.664 294.169C251.544 296.19 251.327 296.581 249.812 299.312C248.988 301.189 248.163 303.066 247.312 305C247.136 305.531 246.959 306.062 246.78 306.597C246.47 307.528 246.285 308.498 246.232 309.478C246.121 311.504 246.095 311.995 245.938 314.875C246.041 317.122 246.145 319.369 246.251 321.664C246.292 322.551 246.44 323.432 246.693 324.283C247.258 326.19 247.419 326.735 248.063 328.906C248.229 329.467 248.44 330.015 248.693 330.542C249.557 332.342 250.423 334.147 251.312 336C252.591 337.939 253.87 339.878 255.188 341.875C256.549 343.566 257.91 345.258 259.312 347C261.622 349.31 263.932 351.62 266.312 354C267.765 355.152 269.218 356.305 270.715 357.492C272.211 358.609 273.708 359.725 275.25 360.875C276.765 362.007 278.279 363.139 279.84 364.305C280.9 365.128 281.961 365.951 283.049 366.796C283.215 366.925 283.312 367.12 283.312 367.33C283.312 367.701 283.016 368.006 282.646 368.013C280.438 368.057 278.226 368.102 275.952 368.147C273.505 368.158 273.505 368.158 271.009 368.169C269.196 368.172 267.384 368.174 265.516 368.177C263.626 368.184 261.735 368.19 259.788 368.197C256.803 368.206 256.803 368.206 253.758 368.216C250.619 368.222 250.619 368.222 247.417 368.228C245.272 368.231 243.128 368.235 240.918 368.238C237.715 368.244 237.715 368.244 234.447 368.251C231.206 368.257 231.206 368.257 227.901 368.263C224.602 368.268 224.602 368.268 221.236 368.274C219.001 368.277 216.766 368.28 214.463 368.283C212.185 368.285 209.908 368.287 207.561 368.289C204.105 368.292 204.105 368.292 200.579 368.295C198.261 368.297 195.942 368.3 193.554 368.302C191.226 368.305 188.898 368.309 186.5 368.312C184.169 368.319 181.838 368.326 179.437 368.333C175.95 368.345 175.95 368.345 172.394 368.357C170.084 368.364 167.774 368.372 165.394 368.38C161.971 368.39 161.971 368.39 158.479 368.4C155.126 368.405 155.126 368.405 151.705 368.41C149.508 368.412 147.31 368.414 145.046 368.416C142.889 368.417 140.732 368.418 138.509 368.418C135.308 368.422 135.308 368.422 132.043 368.426C129.893 368.435 127.742 368.444 125.527 368.453C122.381 368.466 122.381 368.466 119.172 368.479C116.198 368.478 116.198 368.478 113.164 368.477C111.282 368.474 109.4 368.472 107.462 368.47C104.728 368.489 104.728 368.489 101.938 368.509C100.321 368.502 98.7043 368.495 97.0383 368.488C96.9251 368.48 96.812 368.471 96.6989 368.463C94.4222 368.298 93.5301 365.426 95.3125 364C97.1894 362.618 99.0662 361.236 101 359.812C103.083 358.224 105.166 356.636 107.312 355C109.066 353.536 110.819 352.071 112.625 350.562C114.172 349.057 115.719 347.551 117.312 346C118.591 344.371 119.87 342.741 121.188 341.062C122.219 339.392 123.25 337.721 124.312 336C125.096 334.226 125.88 332.452 126.688 330.625C127.224 329.099 127.76 327.572 128.312 326C128.556 325.025 128.8 324.05 129.048 323.059C129.224 322.355 129.33 321.635 129.364 320.909C129.47 318.668 129.487 318.302 129.625 315.375C129.541 313.393 129.457 311.41 129.371 309.388C129.332 308.466 129.177 307.553 128.91 306.67C128.601 305.648 128.291 304.621 127.976 303.58C127.784 302.945 127.535 302.327 127.232 301.737C126.604 300.514 126.396 300.11 125.739 298.83C125.456 298.279 125.125 297.751 124.753 297.254C123.165 295.136 121.573 293.014 119.946 290.845C119.525 290.283 119.05 289.763 118.529 289.291C117.263 288.144 115.991 286.993 114.688 285.812C112.333 284.142 112.062 283.95 110.149 282.593C109.593 282.199 109.001 281.857 108.382 281.572C106.515 280.712 106.203 280.569 103.754 279.441C101.628 278.636 99.5026 277.83 97.3125 277C95.2925 276.487 93.2726 275.974 91.1914 275.445C88.0648 274.792 88.0648 274.792 84.875 274.125C82.6101 273.618 80.3452 273.112 78.0117 272.59C75.801 272.065 73.5902 271.541 71.3125 271C69.4008 270.465 67.4891 269.93 65.5195 269.379C63.76 268.821 62.0004 268.263 60.1875 267.688C57.668 266.808 57.668 266.808 55.0977 265.91C53.5186 265.28 51.9395 264.649 50.3125 264C47.4456 262.556 44.5787 261.112 41.625 259.625C38.0053 257.336 38.0053 257.336 34.3125 255C31.4972 252.649 31.4972 252.649 28.625 250.25C27.2019 248.847 25.7787 247.445 24.3125 246C22.6625 244.35 21.0125 242.7 19.3125 241C17.5725 238.97 15.8324 236.94 14.0517 234.862C13.5602 234.289 13.1291 233.667 12.7651 233.005C11.5857 230.86 10.402 228.708 9.1875 226.5C7.90875 223.695 6.63 220.89 5.3125 218C4.10594 213.978 4.10594 213.978 2.875 209.875C2.35938 207.606 1.84375 205.338 1.3125 203C0.8175 200.03 0.8175 200.03 0.3125 197C0.209375 194.896 0.10625 192.793 0 190.625C0.0923427 188.372 0.184685 186.119 0.279272 183.811C0.301393 183.271 0.363244 182.734 0.464322 182.203C0.908861 179.869 1.35464 177.529 1.8125 175.125C2.6375 172.444 3.4625 169.763 4.3125 167C5.50875 164.257 6.705 161.514 7.9375 158.688C9.23986 156.399 10.5422 154.111 11.8767 151.766C12.1668 151.256 12.4971 150.77 12.8646 150.313C14.2899 148.541 15.7196 146.763 17.1875 144.938C18.8787 143.308 20.57 141.679 22.3125 140C23.9212 138.742 25.53 137.484 27.1875 136.188C28.8787 135.136 30.57 134.084 32.3125 133C34.1688 131.948 36.025 130.896 37.9375 129.812C39.8054 128.988 41.6733 128.164 43.5858 127.321C44.0696 127.107 44.5682 126.929 45.0777 126.787C47.5664 126.095 50.0615 125.401 52.625 124.688C55.1619 124.131 57.6988 123.574 60.3125 123C63.7775 122.505 63.7775 122.505 67.3125 122ZM292.222 152.95C291.617 152.983 291.015 153.067 290.424 153.199C288.785 153.567 287.142 153.935 285.466 154.311C284.906 154.437 284.357 154.606 283.823 154.817C282.007 155.537 280.183 156.259 278.312 157C274.322 158.856 274.322 158.856 270.25 160.75C267.631 162.153 265.011 163.555 262.312 165C260.332 166.217 258.352 167.434 256.312 168.688C254.332 170.111 252.352 171.534 250.312 173C249.022 174.004 247.732 175.008 246.402 176.043C244.347 177.692 244.347 177.692 242.25 179.375C240.899 180.486 239.548 181.597 238.156 182.742C236.888 183.817 235.619 184.892 234.312 186C232.312 187.815 230.311 189.63 228.25 191.5C226.621 192.985 224.991 194.47 223.312 196C222.409 196.645 221.741 197.122 221.185 197.52C218.74 199.266 218.507 202.755 220.853 204.632C221.068 204.804 221.435 205.066 221.678 205.196C223.013 205.912 224.351 206.63 225.727 207.367C227.446 208.195 229.166 209.022 230.938 209.875C232.803 210.749 234.668 211.623 236.59 212.523C238.478 213.341 240.367 214.158 242.312 215C244.046 215.632 245.78 216.263 247.566 216.914C249.194 217.437 250.823 217.961 252.5 218.5C256.862 219.737 256.862 219.737 261.312 221C263.128 221.433 264.942 221.866 266.812 222.312C268.298 222.539 269.783 222.766 271.312 223C273.107 223.206 274.901 223.412 276.75 223.625C278.586 223.749 280.421 223.873 282.312 224C284.086 224.062 285.86 224.124 287.688 224.188C289.544 224.126 291.4 224.064 293.312 224C295.416 223.773 297.52 223.546 299.688 223.312C301.874 222.879 304.06 222.446 306.312 222C308.499 221.299 310.685 220.598 312.938 219.875C314.801 219.034 316.665 218.194 318.573 217.333C319.065 217.111 319.541 216.854 319.995 216.562C321.727 215.449 323.466 214.333 325.25 213.188C326.593 212.076 327.937 210.965 329.307 209.832C329.975 209.279 330.575 208.65 331.096 207.956C332.508 206.073 333.924 204.184 335.366 202.261C335.994 201.425 336.499 200.503 336.866 199.524C337.494 197.848 338.125 196.166 338.766 194.459C339.128 193.491 339.353 192.476 339.433 191.445C339.583 189.515 339.63 188.906 339.811 186.576C339.853 186.027 339.855 185.475 339.815 184.926C339.687 183.163 339.559 181.396 339.429 179.599C339.352 178.539 339.121 177.495 338.745 176.5C338.261 175.222 337.774 173.938 337.281 172.635C337.011 171.922 336.667 171.238 336.256 170.596C335.244 169.015 334.949 168.555 333.892 166.904C333.507 166.303 333.064 165.741 332.57 165.225C331.598 164.211 330.623 163.194 329.631 162.158C329.211 161.72 328.756 161.318 328.27 160.955C327.287 160.221 326.301 159.485 325.3 158.737C324.644 158.247 323.934 157.832 323.186 157.499C320.15 156.15 319.542 155.88 316.428 154.496C315.688 154.167 314.911 153.92 314.117 153.761C313.149 153.567 312.178 153.373 311.192 153.176C310.607 153.059 310.013 152.99 309.416 152.969C306.744 152.876 304.065 152.783 301.312 152.688C299.615 152.702 297.917 152.716 296.168 152.73C294.861 152.803 293.555 152.876 292.222 152.95Z" fill="#fff"/>
<path d="M186.312 0C186.973 0 187.632 0 188.312 0C188.74 1.4141 189.168 2.8282 189.609 4.28516C190.089 6.19168 190.568 8.0982 191.062 10.0625C191.594 12.0683 192.125 14.0741 192.672 16.1406C193.213 18.0742 193.755 20.0078 194.312 22C195.303 24.7431 196.293 27.4862 197.312 30.3125C198.303 32.5194 199.293 34.7262 200.312 37C201.199 38.6294 202.086 40.2587 203 41.9375C204.093 43.2781 205.186 44.6187 206.312 46C207.942 47.3819 209.571 48.7637 211.25 50.1875C213.251 51.4456 215.251 52.7038 217.312 54C219.953 55.1344 222.592 56.2687 225.312 57.4375C227.622 58.2831 229.932 59.1288 232.312 60C233.798 60.495 233.798 60.495 235.312 61C235.312 61.66 235.312 62.32 235.312 63C233.415 63.7219 231.518 64.4438 229.562 65.1875C227.17 66.1156 224.777 67.0437 222.312 68C220.209 69.1137 218.105 70.2275 215.938 71.375C214.081 72.5712 212.225 73.7675 210.312 75C208.003 77.31 205.693 79.62 203.312 82C202.137 84.0419 200.961 86.0838 199.75 88.1875C198.616 90.7656 197.481 93.3438 196.312 96C195.75 97.6861 195.188 99.3722 194.609 101.109C194.078 102.868 193.547 104.626 193 106.438C192.113 109.593 191.226 112.749 190.312 116C189.652 118.31 188.993 120.62 188.312 123C187.652 123 186.993 123 186.312 123C185.836 121.453 185.359 119.906 184.867 118.312C184.313 116.229 183.759 114.146 183.188 112C182.567 109.815 181.947 107.63 181.309 105.379C180.65 103.274 179.991 101.169 179.312 99C177.972 96.0094 176.631 93.0187 175.25 89.9375C173.951 87.6481 172.651 85.3588 171.312 83C169.332 80.69 167.352 78.38 165.312 76C163.332 74.6387 161.352 73.2775 159.312 71.875C155.848 69.9569 155.848 69.9569 152.312 68C149.734 67.0512 147.156 66.1025 144.5 65.125C141.437 64.0731 141.437 64.0731 138.312 63C138.312 62.34 138.312 61.68 138.312 61C140.746 60.0925 143.18 59.185 145.688 58.25C149.957 56.6413 149.957 56.6413 154.312 55C156.189 53.9688 158.066 52.9375 160 51.875C161.423 50.9262 162.846 49.9775 164.312 49C165.962 47.68 167.612 46.36 169.312 45C170.612 42.9787 171.911 40.9575 173.25 38.875C174.591 36.2762 175.931 33.6775 177.312 31C178.406 28.0094 179.499 25.0187 180.625 21.9375C181.512 18.9881 182.399 16.0387 183.312 13C184.179 9.22563 184.179 9.22563 185.062 5.375C185.681 2.71438 185.681 2.71438 186.312 0Z" fill="#fff"/>
</svg>
